<svg viewBox="0 0 30 30" class="icon icon--eye">
  <g class="eye-all">
    <g class="eye-main">
      <path d="M15,12a3,3,0,1,1-3,3,3,3,0,0,1,3-3m0-2a5,5,0,1,0,5,5,5,5,0,0,0-5-5Z" fill="#aaddd6"/>
      <path d="M15,8c5.26,0,9.71,4.78,11.5,7-1.79,2.22-6.24,7-11.5,7S5.29,17.22,3.5,15C5.29,12.78,9.74,8,15,8m0-2C7,6,1,15,1,15s6,9,14,9,14-9,14-9S23,6,15,6Z" fill="#aaddd6"/>
    </g>
    <g class="eyelashes">
      <line class="eyelash-3" x1="24" y1="5.4" x2="27.76" y2="-1.12" fill="none" stroke="#aaddd6" stroke-miterlimit="10" stroke-width="2"/>
      <line class="eyelash-2" x1="15" y1="3.37" x2="15" y2="-4.15" fill="none" stroke="#aaddd6" stroke-miterlimit="10" stroke-width="2"/>
      <line class="eyelash-1" x1="6" y1="5.4" x2="2.24" y2="-1.12" fill="none" stroke="#aaddd6" stroke-miterlimit="10" stroke-width="2"/>
    </g>
  </g>
</svg>
