<svg xmlns="http://www.w3.org/2000/svg" viewBox="0 0 500 500">
  <style>
     @media (prefers-color-scheme: dark) {
     .fav-bg { fill: none }
     .fav-icon { fill: #f9d47f }
     }
   </style>
  <rect class="fav-bg" width="500" height="500" fill="#f9d47f"/>
  <path class="fav-icon" fill="#315436" d="M388.39,295.72q-15.9-19.12-44.6-30.19a156.12,156.12,0,0,0-29.68-8,130.31,130.31,0,0,0,15.39-4.95q27.33-10.81,41.25-30.32t13.91-44.6q0-30.31-17.26-53.3T318.07,88.73Q286,76.06,240.54,76.06H108.59q-9.69,0-14.29,4.22T89.7,92q0,12.42,12.68,17.39l10.93,4q7.45,2,11.18,6.34t3.73,13V367q0,9.19-3.85,13.54t-11.06,6.09l-10.93,4q-12.67,5-12.68,17.39,0,7.45,4.6,11.68t14.29,4.22H278.06q63.38,0,94.8-23.48T404.3,340.2A67.53,67.53,0,0,0,388.39,295.72ZM227.87,107.61q27.57,0,46.34,9.07t28.33,25.6q9.56,16.53,9.56,38.64,0,22.37-8.44,37.65a55,55,0,0,1-24.23,23.11q-15.78,7.81-38.64,7.82H204.51V107.61Zm92.44,259.18q-7.46,12.43-22.12,19.14t-36.28,6.7H238.55q-16.91,0-25.47-7.7t-8.57-23.11V277.33h45.22q38,0,58,16.4t20,44Q327.76,354.37,320.31,366.79Z" />
</svg>
