<svg xmlns="http://www.w3.org/2000/svg" viewBox="0 0 500 500">
  <defs>
    <linearGradient id="linear-gradient" x1="124.58" y1="375.15" x2="377.17" y2="122.57" gradientUnits="userSpaceOnUse">
      <stop offset="0" stop-color="#ffe78e"/>
      <stop offset="1" stop-color="#aaddd6"/>
    </linearGradient>
  </defs>
  <rect width="500" height="500" rx="100" fill="#004f48" />
  <path d="M428.34,250.5c0,32.43-10.51,62.25-25.66,88.44C387.05,366,364,386.38,337,402c-26.19,15.15-55,29.8-87.47,29.8s-63.73-10.42-89.92-25.57c-27-15.63-49.13-39.43-64.75-66.44-15.15-26.19-25.28-56.87-25.28-89.3S82.88,189.24,98,163.06c15.63-27,35.68-50.7,62.69-66.33,26.19-15.15,56.35-22.89,88.78-22.89s63.19,6.7,89.38,21.85c27,15.63,48.5,39.17,64.13,66.18C418.16,188.06,428.34,218.07,428.34,250.5Z" fill="url(#linear-gradient)"/>
</svg>
